<svg xmlns="http://www.w3.org/2000/svg" viewBox="0 -0.700 173.500 72.100" width="173.500" height="72.100"><title>Liro</title><path fill="#323130" d="M0.0 70.0V0.0H12.1V59.1H44.900000000000006V70.0Z M56.2 70.0V20.599999999999994H67.7V70.0ZM61.900000000000006 14.299999999999997Q58.80000000000001 14.299999999999997 56.55000000000001 12.249999999999996Q54.300000000000004 10.199999999999996 54.300000000000004 6.799999999999997Q54.300000000000004 3.3999999999999915 56.55000000000001 1.3499999999999943Q58.80000000000001 -0.7000000000000028 61.900000000000006 -0.7000000000000028Q65.2 -0.7000000000000028 67.35 1.3499999999999943Q69.5 3.3999999999999915 69.5 6.799999999999997Q69.5 10.199999999999996 67.35 12.249999999999996Q65.2 14.299999999999997 61.900000000000006 14.299999999999997Z M83.8 70.0V20.599999999999994H95.1V26.299999999999997H96.8Q97.9 23.199999999999996 100.5 21.799999999999997Q103.1 20.4 106.7 20.4H112.7V30.599999999999994H106.5Q101.5 30.599999999999994 98.4 33.25Q95.3 35.9 95.3 41.4V70.0Z M147.8 71.4Q140.4 71.4 134.55 68.35Q128.7 65.3 125.35 59.65Q122.0 54.0 122.0 46.099999999999994V44.5Q122.0 36.6 125.35 30.9Q128.7 25.199999999999996 134.55 22.199999999999996Q140.4 19.199999999999996 147.8 19.199999999999996Q155.2 19.199999999999996 161.0 22.199999999999996Q166.8 25.199999999999996 170.15 30.9Q173.5 36.6 173.5 44.5V46.099999999999994Q173.5 54.0 170.15 59.65Q166.8 65.3 161.0 68.35Q155.2 71.4 147.8 71.4ZM147.8 61.2Q154.1 61.2 158.1 57.15Q162.1 53.099999999999994 162.1 45.8V44.8Q162.1 37.5 158.1 33.45Q154.1 29.4 147.8 29.4Q141.5 29.4 137.5 33.45Q133.5 37.5 133.5 44.8V45.8Q133.5 53.099999999999994 137.5 57.15Q141.5 61.2 147.8 61.2Z"/></svg>